# xmcd CD database file
#
# Track frame offsets:
#	183
#	15438
#	34308
#	57183
#	74378
#	118510
#	135593
#	146820
#	164273
#	226083
#	254408
#	277720
#
# Disc length: 4063 seconds
#
# Revision: 2
# Processed by: cddbd v1.4b41PL1 Copyright (c) Steve Scherf et al.
# Submitted via: Feurio! 1.52 - http://www.feurio.com
#
DISCID=a00fdd0c
DTITLE=B.B.King and Bobby Bland  - Together For The First Time...Live
DYEAR=1900
DGENRE=
TTITLE0=3 o´Clock Blues
TTITLE1=It´s My Own Fault
TTITLE2=Driftin´ Blues
TTITLE3=That´s The Way Love Is
TTITLE4=I´m Sorry
TTITLE5=I´ll Take Care Of You
TTITLE6=Don´t Cry No More
TTITLE7=Don´t Answer The Door
TTITLE8=Medley:
TTITLE9=Why I Sing The Blues
TTITLE10=Goin´ Down Slow
TTITLE11=I Like To Live The Love
EXTD=
EXTT0=
EXTT1=
EXTT2=
EXTT3=
EXTT4=
EXTT5=
EXTT6=
EXTT7=
EXTT8=Good To Be Back Home, Driving Wheel, Rock Me Momma, Black Night, Cherry 
EXTT8=Red, It´s My Own Fault, 3 o´Clock Blues, Worried Life Blues, Chains Of 
EXTT8=Love, Gonna Get Me An Old Woman
EXTT9=
EXTT10=
EXTT11=
PLAYORDER=
